<?xml version="1.0" encoding="UTF-8"?>
<svg version="1.1" xmlns="http://www.w3.org/2000/svg" width="600" height="400">
<path d="M0 0 C2.29662416 1.17934754 3.51059961 2.38559961 5.3125 4.1875 C7.91165538 5.37777984 7.91165538 5.37777984 10.3125 6.1875 C10.3125 6.8475 10.3125 7.5075 10.3125 8.1875 C11.3953125 8.3421875 11.3953125 8.3421875 12.5 8.5 C15.58996686 9.25532523 17.70808686 10.37887976 20.3125 12.1875 C20.6425 12.8475 20.9725 13.5075 21.3125 14.1875 C22.96927921 14.87837255 24.6381434 15.54038935 26.3125 16.1875 C28.18537432 17.22875968 30.03854074 18.30593827 31.875 19.41015625 C32.91914063 20.03083984 33.96328125 20.65152344 35.0390625 21.29101562 C37.2230773 22.59803642 39.40537003 23.90793905 41.5859375 25.22070312 C42.63007813 25.84009766 43.67421875 26.45949219 44.75 27.09765625 C45.69746094 27.66621338 46.64492188 28.23477051 47.62109375 28.82055664 C50.25083233 30.15617949 52.44397377 30.63374705 55.3125 31.1875 C56.43010197 32.34313001 57.54369697 33.50299327 58.63330078 34.68505859 C62.58759914 38.22311502 67.61192498 40.48379736 72.25 43 C74.50031284 44.23771264 76.75031476 45.47599074 79 46.71484375 C80.08410156 47.30894043 81.16820312 47.90303711 82.28515625 48.51513672 C87.21554756 51.2387803 92.07520557 54.08022793 96.93359375 56.9296875 C99.15868432 58.34330693 99.15868432 58.34330693 101.3125 58.1875 C102.56540594 60.69331188 102.44112953 62.39308366 102.44621277 65.19799805 C102.45047775 66.25804047 102.45474274 67.31808289 102.45913696 68.4102478 C102.45868378 69.57810822 102.45823059 70.74596863 102.45776367 71.94921875 C102.46112228 73.17524811 102.4644809 74.40127747 102.46794128 75.66445923 C102.47582871 79.03215516 102.47911971 82.39978945 102.47975707 85.76749039 C102.48070541 88.57582589 102.48438275 91.38415545 102.48792917 94.19248867 C102.49607644 100.81550331 102.49851311 107.43850436 102.49780273 114.06152344 C102.4972015 120.90186262 102.50776172 127.74212304 102.5235464 134.58244228 C102.53660373 140.44913576 102.54198741 146.31580343 102.54134732 152.18251133 C102.54109185 155.68919707 102.54397019 159.19581282 102.55452538 162.70248413 C102.56596665 166.61028144 102.56147066 170.51796988 102.55541992 174.42578125 C102.56103943 175.59364166 102.56665894 176.76150208 102.57244873 177.9647522 C102.56825424 179.02479462 102.56405975 180.08483704 102.55973816 181.17700195 C102.56028293 182.10172806 102.56082769 183.02645416 102.56138897 183.97920227 C102.3125 186.1875 102.3125 186.1875 100.3125 188.1875 C97.40439315 189.7345584 94.44320002 191.14700071 91.47265625 192.5703125 C88.67967906 193.99959873 86.26087332 195.59803739 83.6875 197.375 C80.92159882 198.9455117 79.92573372 199.35064512 76.81640625 198.5234375 C74.19692971 197.2236668 71.77811097 195.75760107 69.3125 194.1875 C67.78038489 193.39785234 66.23942724 192.62496131 64.6875 191.875 C63.57375 191.318125 62.46 190.76125 61.3125 190.1875 C61.33570313 191.28449219 61.35890625 192.38148438 61.3828125 193.51171875 C61.40157921 194.966139 61.41977844 196.42056664 61.4375 197.875 C61.45425781 198.59623047 61.47101563 199.31746094 61.48828125 200.06054688 C61.52612386 204.20431239 61.36109533 207.53475037 59.3125 211.1875 C56.75 212.375 56.75 212.375 54.3125 213.1875 C53.9825 213.8475 53.6525 214.5075 53.3125 215.1875 C51.69625534 216.07686214 50.04419109 216.90199831 48.375 217.6875 C44.5373649 219.49361242 44.5373649 219.49361242 41.3125 222.1875 C38.25043991 223.31339594 36.2012646 223.54009251 33.13769531 222.32470703 C30.68449615 221.04302523 28.31033344 219.67483539 25.9375 218.25 C25.10605469 217.76853516 24.27460938 217.28707031 23.41796875 216.79101562 C21.37367876 215.60438752 19.33959789 214.40318665 17.3125 213.1875 C17.3753418 213.8172876 17.43818359 214.4470752 17.50292969 215.09594727 C18.70955042 228.95299356 18.70955042 228.95299356 17.3125 235.1875 C13.82720468 239.14492817 10.18211666 240.43391649 5.3125 242.1875 C3.6230668 243.68339817 3.6230668 243.68339817 2.3125 245.1875 C-2.1233589 247.15899284 -4.99361276 247.3099513 -9.6875 246.1875 C-10.7703125 246.001875 -10.7703125 246.001875 -11.875 245.8125 C-13.6875 245.1875 -13.6875 245.1875 -15.0078125 243.78515625 C-16.98992314 241.89984636 -18.86026342 241.05691827 -21.375 240 C-22.58736328 239.48373047 -22.58736328 239.48373047 -23.82421875 238.95703125 C-24.43910156 238.70308594 -25.05398438 238.44914063 -25.6875 238.1875 C-25.6875 237.5275 -25.6875 236.8675 -25.6875 236.1875 C-26.6775 235.8575 -27.6675 235.5275 -28.6875 235.1875 C-29.1825 224.7925 -29.1825 224.7925 -29.6875 214.1875 C-34.38799588 215.66809573 -34.38799588 215.66809573 -36.125 217.6875 C-38.33662481 219.81065981 -40.79178865 220.2825902 -43.6875 221.1875 C-44.6775 221.8475 -45.6675 222.5075 -46.6875 223.1875 C-51.07636672 222.89689592 -54.18420797 220.89449323 -57.875 218.625 C-61.53417915 216.09453993 -61.53417915 216.09453993 -65.6875 215.1875 C-65.6875 214.5275 -65.6875 213.8675 -65.6875 213.1875 C-66.47125 212.98125 -67.255 212.775 -68.0625 212.5625 C-70.6875 211.1875 -70.6875 211.1875 -71.84375 208.59375 C-72.79057207 204.77139423 -72.9108781 201.21735378 -72.8125 197.3125 C-72.80347656 196.62414062 -72.79445312 195.93578125 -72.78515625 195.2265625 C-72.76182513 193.54672162 -72.72596326 191.86706254 -72.6875 190.1875 C-73.47253906 190.58582031 -74.25757813 190.98414063 -75.06640625 191.39453125 C-76.11699219 191.92433594 -77.16757813 192.45414063 -78.25 193 C-79.28253906 193.52207031 -80.31507813 194.04414063 -81.37890625 194.58203125 C-82.47074219 195.11183594 -83.56257813 195.64164063 -84.6875 196.1875 C-85.79351562 196.8475 -86.89953125 197.5075 -88.0390625 198.1875 C-92.08489393 199.29642168 -92.52944183 199.16881978 -96.01953125 197.29296875 C-97.52979692 196.34657089 -99.02317887 195.37278288 -100.5 194.375 C-102.00457335 193.40713836 -103.51099587 192.44214338 -105.01953125 191.48046875 C-105.67671143 191.0424292 -106.3338916 190.60438965 -107.01098633 190.15307617 C-108.65390223 189.02113831 -108.65390223 189.02113831 -110.6875 189.1875 C-110.6875 188.5275 -110.6875 187.8675 -110.6875 187.1875 C-111.6775 186.8575 -112.6675 186.5275 -113.6875 186.1875 C-113.99156036 169.8977159 -114.22060258 153.60885571 -114.36105824 137.31691742 C-114.42801722 129.75165299 -114.51924643 122.18815419 -114.66821289 114.62402344 C-114.79803585 108.02879028 -114.88171129 101.43483568 -114.91065043 94.83836031 C-114.92756337 91.34663827 -114.96710653 87.85857262 -115.06199074 84.36802673 C-115.61693469 63.14705953 -115.61693469 63.14705953 -112.4300499 58.25869751 C-109.02400869 54.95555823 -105.19392066 53.58860415 -100.6875 52.1875 C-99.00075094 51.30833382 -97.32915831 50.39823594 -95.6875 49.4375 C-94.79417969 48.95796875 -93.90085938 48.4784375 -92.98046875 47.984375 C-80.51427297 41.18194314 -68.26789404 33.96392186 -56 26.8125 C-55.02135986 26.24208984 -54.04271973 25.67167969 -53.03442383 25.08398438 C-47.54008085 21.87437587 -42.08284563 18.61693126 -36.67260742 15.26708984 C-34.6875 14.1875 -34.6875 14.1875 -32.6875 14.1875 C-32.3575 13.5275 -32.0275 12.8675 -31.6875 12.1875 C-29.91015625 11.1171875 -29.91015625 11.1171875 -27.75 10.0625 C-27.03972656 9.70929688 -26.32945312 9.35609375 -25.59765625 8.9921875 C-23.6875 8.1875 -23.6875 8.1875 -21.6875 8.1875 C-21.6875 7.5275 -21.6875 6.8675 -21.6875 6.1875 C-20.883125 6.06375 -20.07875 5.94 -19.25 5.8125 C-18.404375 5.60625 -17.55875 5.4 -16.6875 5.1875 C-16.3575 4.5275 -16.0275 3.8675 -15.6875 3.1875 C-10.20669035 -0.4663731 -6.57065931 -1.9864784 0 0 Z M-14.125 7.5 C-15.68323827 8.42768069 -17.24184506 9.35474261 -18.80078125 10.28125 C-19.6098291 10.76335937 -20.41887695 11.24546875 -21.25244141 11.7421875 C-25.09093383 14.02049862 -28.94950416 16.26355024 -32.8125 18.5 C-33.59447754 18.9530249 -34.37645508 19.4060498 -35.18212891 19.87280273 C-41.42915 23.48187206 -47.71212204 27.02523824 -54 30.5625 C-62.6146516 35.41157342 -71.15731163 40.36914955 -79.65014648 45.4284668 C-84.17338537 48.12119395 -88.70987775 50.7822222 -93.2890625 53.37890625 C-94.1769043 53.88405762 -95.06474609 54.38920898 -95.97949219 54.90966797 C-97.6666911 55.86681049 -99.35732154 56.81793605 -101.05175781 57.76220703 C-101.79522461 58.1848584 -102.53869141 58.60750977 -103.3046875 59.04296875 C-103.96065918 59.41059326 -104.61663086 59.77821777 -105.29248047 60.15698242 C-105.98301514 60.66708862 -105.98301514 60.66708862 -106.6875 61.1875 C-106.6875 61.8475 -106.6875 62.5075 -106.6875 63.1875 C-104.49019616 64.56307241 -102.28260062 65.91213252 -100.0625 67.25 C-99.44503906 67.63994141 -98.82757813 68.02988281 -98.19140625 68.43164062 C-95.13918391 70.2469097 -93.28118589 71.1875 -89.671875 71.1875 C-85.98497411 69.95209866 -82.84180029 68.16950702 -79.5625 66.125 C-78.04556852 65.20618747 -76.52723498 64.28968733 -75.0078125 63.375 C-74.16637695 62.86710937 -73.32494141 62.35921875 -72.45800781 61.8359375 C-67.74675108 59.03276466 -62.97458231 56.33679925 -58.20736694 53.63024902 C-47.34112514 47.45844103 -36.52706713 41.20118287 -25.75 34.875 C-25.12581177 34.50865448 -24.50162354 34.14230896 -23.85852051 33.76486206 C-16.86727398 29.69136874 -16.86727398 29.69136874 -9.96606445 25.46948242 C-7.6875 24.1875 -7.6875 24.1875 -5.3828125 24.2265625 C-1.53031525 25.60006152 1.89540042 27.53174747 5.4375 29.5625 C6.22157227 30.00513184 7.00564453 30.44776367 7.81347656 30.90380859 C18.10017261 36.72912495 28.32766689 42.66396723 38.515625 48.66015625 C39.78118118 49.39855547 41.04680202 50.13684387 42.3125 50.875 C43.405625 51.51824219 44.49875 52.16148437 45.625 52.82421875 C48.25615956 54.41369554 48.25615956 54.41369554 51.3125 54.1875 C51.3125 54.8475 51.3125 55.5075 51.3125 56.1875 C51.81587891 56.46424561 52.31925781 56.74099121 52.83789062 57.02612305 C55.16405786 58.30674101 57.48828057 59.59085055 59.8125 60.875 C60.60398437 61.31005859 61.39546875 61.74511719 62.2109375 62.19335938 C62.99726563 62.62841797 63.78359375 63.06347656 64.59375 63.51171875 C65.77710938 64.16599854 65.77710938 64.16599854 66.984375 64.83349609 C69.262153 66.15821891 71.41489962 67.60198979 73.59375 69.08203125 C76.03363237 70.61025262 76.96167496 71.18270876 79.88671875 71.22265625 C83.07855242 69.86060162 86.09071371 68.31071461 89.125 66.625 C90.0212207 66.1309668 90.0212207 66.1309668 90.93554688 65.62695312 C92.39783998 64.81976733 93.8556399 64.00445083 95.3125 63.1875 C94.02566457 59.32699371 92.75749018 59.03309317 89.23828125 57.11328125 C88.18511719 56.53223633 87.13195312 55.95119141 86.046875 55.35253906 C84.35304688 54.43553223 84.35304688 54.43553223 82.625 53.5 C80.31881659 52.23082088 78.01282545 50.96129234 75.70703125 49.69140625 C74.59537598 49.08312988 73.4837207 48.47485352 72.33837891 47.84814453 C63.32554945 42.90177806 54.46388507 37.69535725 45.61572266 32.4621582 C37.90564652 27.91875091 30.1235061 23.5016098 22.3449707 19.0769043 C14.08426582 14.37652459 5.88670257 9.59601337 -2.1953125 4.59375 C-7.01062716 1.87664455 -9.84774884 4.92170168 -14.125 7.5 Z M-3.6875 29.1875 C-3.6875 35.7875 -3.6875 42.3875 -3.6875 49.1875 C-1.32464844 50.46367188 -1.32464844 50.46367188 1.0859375 51.765625 C7.10174531 55.04767429 13.02674507 58.47067529 18.9375 61.9375 C19.977854 62.54585693 21.01820801 63.15421387 22.09008789 63.78100586 C27.60037103 67.00505806 33.10387883 70.24047317 38.6027832 73.48388672 C48.49319033 80.52302998 48.49319033 80.52302998 59.3125 84.1875 C59.30504257 85.41445587 59.29758514 86.64141174 59.28990173 87.9055481 C59.22547268 99.47077534 59.20829827 111.03523702 59.23734188 122.60061836 C59.25075628 128.54660787 59.24754501 134.49161848 59.20629883 140.4375 C59.16710181 146.17625012 59.17162879 151.913456 59.20642281 157.65221786 C59.21202003 159.84106976 59.20188383 162.03002046 59.17573357 164.2187233 C59.14176663 167.28704605 59.16383856 170.35025474 59.19897461 173.41845703 C59.17596786 174.32260849 59.15296112 175.22675995 59.1292572 176.15830994 C59.22508541 180.03663625 59.40168241 182.27732812 62.21463203 185.08828354 C66.15782527 187.84652178 69.53895526 189.43633383 74.3125 190.1875 C74.3125 190.8475 74.3125 191.5075 74.3125 192.1875 C75.3025 192.5175 76.2925 192.8475 77.3125 193.1875 C77.3125 154.2475 77.3125 115.3075 77.3125 75.1875 C63.43058212 67.17870122 49.55200273 59.17673978 35.62890625 51.2421875 C31.74775965 49.02082385 27.88428249 46.77094097 24.02734375 44.5078125 C22.9614502 43.88269775 21.89555664 43.25758301 20.79736328 42.61352539 C18.74842847 41.40992993 16.70110788 40.20358033 14.65576172 38.99389648 C8.65020688 35.46523501 2.57590324 32.23656345 -3.6875 29.1875 Z M-11.67578125 54.96875 C-12.68616455 55.55978516 -13.69654785 56.15082031 -14.73754883 56.75976562 C-15.81415771 57.39591797 -16.8907666 58.03207031 -18 58.6875 C-19.09272217 59.32880859 -20.18544434 59.97011719 -21.3112793 60.63085938 C-27.90924057 64.51357188 -34.44870017 68.47382504 -40.9453125 72.5234375 C-44.57287044 74.72477608 -48.29106611 76.73227657 -52.03125 78.734375 C-56.32946433 81.08575108 -60.50877149 83.63131466 -64.6875 86.1875 C-59.72363447 90.51086676 -53.35437931 95.17300887 -46.6875 96.1875 C-44.02631385 94.76048714 -41.61899195 93.30238806 -39.125 91.625 C-37.68253414 90.6877228 -36.23851892 89.75282578 -34.79296875 88.8203125 C-34.08962402 88.36430664 -33.3862793 87.90830078 -32.66162109 87.43847656 C-29.32132263 85.32176999 -25.84964891 83.47949822 -22.3515625 81.640625 C-18.26431697 79.41121835 -14.34405519 76.90480121 -10.4140625 74.41015625 C-7.08869888 72.91898317 -6.09009118 72.95293152 -2.6875 74.1875 C0.04966637 75.50691713 2.67669927 76.98990583 5.3125 78.5 C6.08851563 78.93062744 6.86453125 79.36125488 7.6640625 79.80493164 C12.13891079 82.3047204 16.5005731 84.9235767 20.8125 87.6953125 C22.18728516 88.55129028 22.18728516 88.55129028 23.58984375 89.42456055 C25.37393198 90.53881579 27.13833472 91.68537662 28.87890625 92.86645508 C31.40721343 94.42216522 33.41269985 95.53548571 36.3125 96.1875 C40.11016563 95.1721306 43.07880811 93.38078667 46.3125 91.1875 C46.95654785 90.80303711 47.6005957 90.41857422 48.26416016 90.02246094 C50.10257784 88.93865767 50.10257784 88.93865767 52.3125 87.1875 C52.3125 86.5275 52.3125 85.8675 52.3125 85.1875 C51.5376123 84.74470703 50.76272461 84.30191406 49.96435547 83.84570312 C42.73022461 79.71191406 42.73022461 79.71191406 35.49609375 75.578125 C34.88809937 75.23072266 34.28010498 74.88332031 33.65368652 74.52539062 C32.41443006 73.81719732 31.17525446 73.1088625 29.93615723 72.40039062 C26.80891583 70.61258142 23.68032625 68.82721911 20.54882812 67.046875 C13.67622117 63.13644367 6.86108041 59.15619579 0.13671875 54.99609375 C-5.20533436 51.74095735 -6.36387416 51.85000423 -11.67578125 54.96875 Z M-109.6875 66.1875 C-109.99162339 81.30349534 -110.22063681 96.41934949 -110.36105824 111.53771973 C-110.42800375 118.55825251 -110.5192035 125.57688126 -110.66821289 132.59619141 C-110.81198497 139.37203941 -110.88721734 146.1459099 -110.92090416 152.92318726 C-110.9449049 155.50702024 -110.99177765 158.09074625 -111.06199074 160.67373657 C-112.04964874 173.35238822 -112.04964874 173.35238822 -108.41393661 185.06237793 C-103.98367542 189.29128569 -98.51170906 190.75630793 -92.6875 192.1875 C-92.33645182 177.08902436 -92.07227861 161.99073702 -91.91031742 146.88909245 C-91.83309877 139.87608674 -91.72792863 132.86562193 -91.5559082 125.85424805 C-91.38990354 119.08481873 -91.30319154 112.3180268 -91.26434135 105.54668999 C-91.23666606 102.96636895 -91.18261474 100.38618928 -91.10154915 97.80699348 C-90.07929162 84.90606504 -90.07929162 84.90606504 -94.19913864 73.19358444 C-98.33588212 69.53927029 -104.03278214 66.1875 -109.6875 66.1875 Z M-3.6875 78.1875 C-5.12787259 89.33460698 -5.12787259 89.33460698 -2.03515625 99.57421875 C0.34741896 101.10258422 2.68662848 102.13483785 5.3125 103.1875 C7.13946142 104.28885972 8.95241206 105.41382299 10.75 106.5625 C13.8250469 108.59789345 13.8250469 108.59789345 17.3125 109.1875 C17.3125 141.8575 17.3125 174.5275 17.3125 208.1875 C22.5925 211.1575 27.8725 214.1275 33.3125 217.1875 C34.13281008 213.90625967 34.43638662 211.67655146 34.43275452 208.37860107 C34.43412918 207.41388885 34.43550385 206.44917664 34.43692017 205.45523071 C34.43332489 204.40362762 34.42972961 203.35202454 34.42602539 202.26855469 C34.42617142 201.15606354 34.42631744 200.04357239 34.4264679 198.89736938 C34.4257709 195.21801813 34.41798839 191.53871742 34.41015625 187.859375 C34.40829132 185.30918404 34.40686777 182.75899272 34.40586853 180.20880127 C34.40243972 174.18112671 34.39455717 168.15347386 34.38451904 162.125808 C34.37333762 155.2624868 34.36784234 148.39916474 34.36282361 141.5358367 C34.35237401 127.41971441 34.33478721 113.3036082 34.3125 99.1875 C33.79801332 98.90228548 33.28352663 98.61707096 32.75344944 98.32321358 C30.39534271 97.01559933 28.03763455 95.707268 25.67993164 94.39892578 C24.87067482 93.95031693 24.061418 93.50170807 23.22763824 93.039505 C16.52373622 89.31829515 9.88702169 85.4918166 3.27539062 81.609375 C2.50259766 81.15820312 1.72980469 80.70703125 0.93359375 80.2421875 C0.2573999 79.84499512 -0.41879395 79.44780273 -1.11547852 79.03857422 C-2.53612937 78.10815101 -2.53612937 78.10815101 -3.6875 78.1875 Z M-67.6875 90.1875 C-67.89788231 105.33842611 -68.05651711 120.48928481 -68.15380955 135.64134407 C-68.20018879 142.67708327 -68.26339842 149.7119142 -68.36645508 156.74707031 C-68.46585408 163.53578163 -68.51804971 170.32354859 -68.54139519 177.11294174 C-68.55803277 179.70384455 -68.59052312 182.29469532 -68.63907051 184.88519669 C-68.70436272 188.51330611 -68.71340423 192.13751146 -68.70922852 195.76611328 C-68.741586 196.83857803 -68.77394348 197.91104279 -68.80728149 199.01600647 C-68.78258967 204.63260854 -68.78258967 204.63260854 -65.77558708 209.14074326 C-63.47019898 210.71107558 -61.19983839 211.98023082 -58.6875 213.1875 C-57.90820916 213.59607302 -57.12891832 214.00464603 -56.32601261 214.42560005 C-54.46655347 215.38607569 -52.57960506 216.29305034 -50.6875 217.1875 C-49.09761424 215.59761424 -49.53829844 213.94773152 -49.51341248 211.74177551 C-49.50047653 210.78144409 -49.48754059 209.82111267 -49.47421265 208.8316803 C-49.46075302 207.23821022 -49.46075302 207.23821022 -49.44702148 205.61254883 C-49.42752693 203.9442955 -49.42752693 203.9442955 -49.40763855 202.24234009 C-49.29580901 191.97323508 -49.23507784 181.7034379 -49.19087124 171.4338274 C-49.15764487 163.84216593 -49.09813185 156.25169952 -49.00336021 148.66055089 C-48.93122045 142.6799172 -48.90290832 136.69984159 -48.88954353 130.71875572 C-48.87727299 128.17534772 -48.85118849 125.63196777 -48.81109428 123.08884621 C-48.75776719 119.52805989 -48.75461337 115.97052346 -48.76342773 112.40942383 C-48.73623657 111.3572316 -48.70904541 110.30503937 -48.68103027 109.22096252 C-48.71412886 103.89073016 -48.71412886 103.89073016 -51.17897224 99.33872032 C-53.26614787 97.6828872 -55.33111346 96.43116043 -57.6875 95.1875 C-58.59638694 94.70309857 -59.50527388 94.21869715 -60.44170284 93.71961689 C-62.83693199 92.49215281 -65.24551607 91.31841879 -67.6875 90.1875 Z M-14.5 105.4375 C-15.19287109 105.85902344 -15.88574219 106.28054687 -16.59960938 106.71484375 C-18.34113022 107.80265086 -20.02074374 108.98827411 -21.6875 110.1875 C-21.6875 110.8475 -21.6875 111.5075 -21.6875 112.1875 C-19.46795349 113.56007477 -17.23914591 114.91009151 -15 116.25 C-14.37416016 116.63994141 -13.74832031 117.02988281 -13.10351562 117.43164062 C-10.39831487 119.03209971 -8.34251849 120.19558665 -5.15625 120.15625 C-1.90864161 118.88187202 1.07529471 117.31928072 4.125 115.625 C4.72248047 115.29564453 5.31996094 114.96628906 5.93554688 114.62695312 C7.39783998 113.81976733 8.8556399 113.00445083 10.3125 112.1875 C9.01447849 108.29343548 7.63690712 107.99344008 4.0625 106.125 C2.63164062 105.36509766 2.63164062 105.36509766 1.171875 104.58984375 C0.22828125 104.12707031 -0.7153125 103.66429687 -1.6875 103.1875 C-2.46996094 102.70925781 -3.25242187 102.23101562 -4.05859375 101.73828125 C-8.32227735 100.84499836 -10.98748844 103.15856906 -14.5 105.4375 Z M-24.6875 115.1875 C-24.99162339 130.30349534 -25.22063681 145.41934949 -25.36105824 160.53771973 C-25.42800375 167.55825251 -25.5192035 174.57688126 -25.66821289 181.59619141 C-25.81198497 188.37203941 -25.88721734 195.1459099 -25.92090416 201.92318726 C-25.9449049 204.50702024 -25.99177765 207.09074625 -26.06199074 209.67373657 C-27.05694936 222.3491102 -27.05694936 222.3491102 -23.41393661 234.04626465 C-19.98975683 237.27318955 -16.15347172 238.76210124 -11.6875 240.1875 C-10.34548386 240.8365107 -9.01007344 241.49973427 -7.6875 242.1875 C-7.3364623 226.95863196 -7.07228351 211.7299506 -6.91031742 196.49794102 C-6.83309674 189.42441319 -6.72792201 182.35340428 -6.5559082 175.28149414 C-6.38991222 168.4537122 -6.30319303 161.62854493 -6.26434135 154.79887199 C-6.23666469 152.1962259 -6.18261084 149.59372005 -6.10154915 146.99218941 C-5.0711211 133.99467484 -5.0711211 133.99467484 -9.19913864 122.18445969 C-13.33660762 118.5199186 -19.02600799 115.1875 -24.6875 115.1875 Z " fill="#060606" transform="translate(305.6875,76.8125)"/>
<path d="M0 0 C1.3125 2.0625 1.3125 2.0625 2 4 C0.68 4 -0.64 4 -2 4 C-2 10.93 -2 17.86 -2 25 C-0.35 25.33 1.3 25.66 3 26 C9.31332576 28.00416411 15.59972288 30.93602503 20 36 C23.05719845 43.13888553 22.14174696 51.44572539 21.9140625 59.03515625 C21.90732352 61.28290317 21.90795585 63.53068317 21.9156189 65.77842712 C21.91539435 71.67084147 21.81280472 77.55717967 21.68914795 83.44812012 C21.58236961 89.46448534 21.57816009 95.4808834 21.5625 101.49804688 C21.52319325 110.25751879 21.45144568 119.0155157 21.29150391 127.77368164 C21.27774216 128.69880051 21.26398041 129.62391937 21.24980164 130.57707214 C21.11772065 136.88227935 21.11772065 136.88227935 20 138 C19.97626077 139.78515226 20.01103068 141.57114316 20.0703125 143.35546875 C20.31740165 161.41954574 20.31740165 161.41954574 16.59375 165.88671875 C13.73978352 167.31745721 11.06930321 168.16291731 8 169 C6.33163518 170.4647923 6.33163518 170.4647923 5 172 C0.5641411 173.97149284 -2.30611276 174.1224513 -7 173 C-7.721875 172.87625 -8.44375 172.7525 -9.1875 172.625 C-11 172 -11 172 -12.3203125 170.59765625 C-14.30242314 168.71234636 -16.17276342 167.86941827 -18.6875 166.8125 C-19.89986328 166.29623047 -19.89986328 166.29623047 -21.13671875 165.76953125 C-21.75160156 165.51558594 -22.36648438 165.26164063 -23 165 C-23 164.34 -23 163.68 -23 163 C-23.99 162.67 -24.98 162.34 -26 162 C-26.33 155.07 -26.66 148.14 -27 141 C-31.70049588 142.48059573 -31.70049588 142.48059573 -33.4375 144.5 C-35.64912481 146.62315981 -38.10428865 147.0950902 -41 148 C-42.485 148.99 -42.485 148.99 -44 150 C-46.6875 149.625 -46.6875 149.625 -49 149 C-49.33 148.01 -49.66 147.02 -50 146 C-49.01 145.67 -48.02 145.34 -47 145 C-47.06054393 129.8313321 -47.1380505 114.66281646 -47.23571491 99.49434376 C-47.28066806 92.45124114 -47.32008376 85.40818904 -47.34643555 78.36499023 C-47.37187515 71.56976252 -47.41278307 64.77476881 -47.46318626 57.97968102 C-47.47988991 55.38534015 -47.49138233 52.79096041 -47.49761391 50.19657326 C-47.50721666 46.5667622 -47.53523148 42.93753046 -47.56762695 39.30786133 C-47.56619186 38.2318013 -47.56475677 37.15574127 -47.5632782 36.04707336 C-47.61026069 29.03316058 -47.61026069 29.03316058 -51 23 C-47 22 -47 22 -45.30078125 21.7265625 C-41.86881496 20.64278367 -38.97364103 18.70085495 -35.9375 16.8125 C-30.59937792 13.54784203 -25.22846999 10.42233833 -19.69921875 7.48828125 C-17.71312266 6.39319788 -15.76153998 5.23493407 -13.83203125 4.04296875 C-12.24455078 3.06263672 -12.24455078 3.06263672 -10.625 2.0625 C-9.66851562 1.45535156 -8.71203125 0.84820312 -7.7265625 0.22265625 C-4.57394374 -1.19105388 -3.21167033 -1.18117473 0 0 Z M-11.8125 32.25 C-12.50537109 32.67152344 -13.19824219 33.09304687 -13.91210938 33.52734375 C-15.65363022 34.61515086 -17.33324374 35.80077411 -19 37 C-19 37.66 -19 38.32 -19 39 C-16.78045349 40.37257477 -14.55164591 41.72259151 -12.3125 43.0625 C-11.68666016 43.45244141 -11.06082031 43.84238281 -10.41601562 44.24414062 C-7.71081487 45.84459971 -5.65501849 47.00808665 -2.46875 46.96875 C0.77885839 45.69437202 3.76279471 44.13178072 6.8125 42.4375 C7.40998047 42.10814453 8.00746094 41.77878906 8.62304688 41.43945312 C10.08533998 40.63226733 11.5431399 39.81695083 13 39 C11.70197849 35.10593548 10.32440712 34.80594008 6.75 32.9375 C5.31914062 32.17759766 5.31914062 32.17759766 3.859375 31.40234375 C2.91578125 30.93957031 1.9721875 30.47679687 1 30 C0.21753906 29.52175781 -0.56492187 29.04351562 -1.37109375 28.55078125 C-5.63477735 27.65749836 -8.29998844 29.97106906 -11.8125 32.25 Z M-22 42 C-22.30412339 57.11599534 -22.53313681 72.23184949 -22.67355824 87.35021973 C-22.74050375 94.37075251 -22.8317035 101.38938126 -22.98071289 108.40869141 C-23.12448497 115.18453941 -23.19971734 121.9584099 -23.23340416 128.73568726 C-23.2574049 131.31952024 -23.30427765 133.90324625 -23.37449074 136.48623657 C-24.36944936 149.1616102 -24.36944936 149.1616102 -20.72643661 160.85876465 C-17.30225683 164.08568955 -13.46597172 165.57460124 -9 167 C-7.65798386 167.6490107 -6.32257344 168.31223427 -5 169 C-4.6489623 153.77113196 -4.38478351 138.5424506 -4.22281742 123.31044102 C-4.14559674 116.23691319 -4.04042201 109.16590428 -3.8684082 102.09399414 C-3.70241222 95.2662122 -3.61569303 88.44104493 -3.57684135 81.61137199 C-3.54916469 79.0087259 -3.49511084 76.40622005 -3.41404915 73.80468941 C-2.3836211 60.80717484 -2.3836211 60.80717484 -6.51163864 48.99695969 C-10.64910762 45.3324186 -16.33850799 42 -22 42 Z " fill="#040404" transform="translate(303,150)"/>
<path d="M0 0 C4.86265245 1.40957257 8.95504461 3.57062254 13.25 6.1875 C14.73888802 7.07798651 16.22852478 7.96722185 17.71875 8.85546875 C18.54375 9.34837402 19.36875 9.8412793 20.21875 10.34912109 C25.1259296 13.26189747 30.06027781 16.12758161 34.99938965 18.98574829 C36.72683903 19.98658122 38.45181705 20.99167581 40.17675781 21.99682617 C41.24764648 22.61662354 42.31853516 23.2364209 43.421875 23.875 C44.37674805 24.42929688 45.33162109 24.98359375 46.31542969 25.5546875 C48.8303263 26.90865148 51.32729405 28.00031334 54 29 C54 29.66 54 30.32 54 31 C55.11375 31.433125 55.11375 31.433125 56.25 31.875 C62.77142857 34.54285714 62.77142857 34.54285714 64 37 C64.07072538 40.02000567 64.08038785 43.01680268 64.04663086 46.03613281 C64.03385409 47.97804561 64.02141376 49.91996064 64.00926208 51.86187744 C64.00134581 52.894842 63.99342953 53.92780655 63.98527336 54.99207306 C63.94327654 61.59298052 63.9550015 68.1940629 63.95516109 74.79507828 C63.95216155 80.60195213 63.93141925 86.40775324 63.87329102 92.21435547 C63.81815764 97.82576318 63.81162846 103.43536451 63.83798409 109.04695892 C63.83921975 111.18561887 63.82269824 113.32436574 63.78806877 115.46274567 C63.0607647 126.73842246 63.0607647 126.73842246 67.19851685 136.6385498 C69.80868896 138.24881468 72.04539467 139.21758498 75 140 C75.99 140.33 76.98 140.66 78 141 C78 141.66 78 142.32 78 143 C78.66 143 79.32 143 80 143 C80.33 104.39 80.66 65.78 81 26 C81.33 26 81.66 26 82 26 C82 65.27 82 104.54 82 145 C81.01 145 80.02 145 79 145 C79.33 145.99 79.66 146.98 80 148 C76.45756548 146.63408831 73.07372071 145.09068516 69.6875 143.375 C68.36298828 142.70597656 68.36298828 142.70597656 67.01171875 142.0234375 C66.34785156 141.68570313 65.68398438 141.34796875 65 141 C65.02320313 142.09699219 65.04640625 143.19398438 65.0703125 144.32421875 C65.08907921 145.778639 65.10727844 147.23306664 65.125 148.6875 C65.14175781 149.40873047 65.15851563 150.12996094 65.17578125 150.87304688 C65.21362386 155.01681239 65.04859533 158.34725037 63 162 C60.4375 163.1875 60.4375 163.1875 58 164 C57.67 164.66 57.34 165.32 57 166 C55.38375534 166.88936214 53.73169109 167.71449831 52.0625 168.5 C48.2248649 170.30611242 48.2248649 170.30611242 45 173 C41.93793991 174.12589594 39.8887646 174.35259251 36.82519531 173.13720703 C34.3696507 171.85429984 32.00092645 170.48835865 29.625 169.0625 C26.77875 167.391875 23.9325 165.72125 21 164 C21 171.26 21 178.52 21 186 C20.67 186 20.34 186 20 186 C19.91303823 182.06263877 19.85962165 178.12552372 19.8125 174.1875 C19.78736328 173.06794922 19.76222656 171.94839844 19.73632812 170.79492188 C19.72666016 169.72177734 19.71699219 168.64863281 19.70703125 167.54296875 C19.6913208 166.55321045 19.67561035 165.56345215 19.65942383 164.54370117 C20 162 20 162 23 159 C27.62 161.64 32.24 164.28 37 167 C37.33 128.39 37.66 89.78 38 50 C36.35 49.34 34.7 48.68 33 48 C31.67923056 47.30607729 30.3723033 46.58504275 29.08203125 45.8359375 C28.38529297 45.43632812 27.68855469 45.03671875 26.97070312 44.625 C25.51973747 43.7846217 24.06922364 42.94346288 22.61914062 42.1015625 C19.0412811 39.82043243 19.0412811 39.82043243 15 39 C15 38.34 15 37.68 15 37 C14.360625 36.773125 13.72125 36.54625 13.0625 36.3125 C8.855805 34.50963071 4.9810729 32.25792194 1 30 C1 36.27 1 42.54 1 49 C0.34 49 -0.32 49 -1 49 C-1 42.07 -1 35.14 -1 28 C-0.01 27.67 0.98 27.34 2 27 C2.33 26.34 2.66 25.68 3 25 C5.48986117 26.40549413 7.97938693 27.81156573 10.46801758 29.21923828 C12.5795301 30.41028092 14.69398206 31.59612684 16.8112793 32.77685547 C21.39204853 35.3402276 25.93544644 37.88964628 30.29296875 40.8203125 C36.0929825 44.96335136 36.0929825 44.96335136 42.890625 45.47265625 C45.52564084 44.20522904 47.68656994 42.7788875 50 41 C51.010625 40.443125 52.02125 39.88625 53.0625 39.3125 C55.13411845 38.1398415 55.13411845 38.1398415 56 36 C54.92830566 35.59491211 54.92830566 35.59491211 53.83496094 35.18164062 C50.97136586 33.988065 48.34531107 32.61173477 45.640625 31.09375 C44.61525635 30.51947266 43.5898877 29.94519531 42.53344727 29.35351562 C41.44990967 28.74185547 40.36637207 28.13019531 39.25 27.5 C38.13488037 26.87287109 37.01976074 26.24574219 35.87084961 25.59960938 C26.84735193 20.51053083 17.89106527 15.31666733 9 10 C7.38738281 9.03707031 7.38738281 9.03707031 5.7421875 8.0546875 C3.49226511 6.70724094 1.24442271 5.35657982 -1 4 C-0.67 2.68 -0.34 1.36 0 0 Z " fill="#171717" transform="translate(302,126)"/>
<path d="M0 0 C0.15356191 13.15143168 0.30174369 26.30291174 0.4429636 39.45448208 C0.5087013 45.56059029 0.57632646 51.66666569 0.64819336 57.77270508 C0.71741752 63.66000803 0.78177761 69.54734551 0.84269524 75.43474007 C0.86686129 77.68634043 0.89281134 79.93792235 0.92053413 82.18948174 C0.95892022 85.33128851 0.99109096 88.47309974 1.02172852 91.61499023 C1.03467453 92.55581955 1.04762054 93.49664886 1.06095886 94.46598816 C1.0789712 96.64401241 1.04531385 98.82237268 1 101 C0.67 101.33 0.34 101.66 0 102 C-0.02373923 103.78515226 0.01103068 105.57114316 0.0703125 107.35546875 C0.31740165 125.41954574 0.31740165 125.41954574 -3.40625 129.88671875 C-6.26021648 131.31745721 -8.93069679 132.16291731 -12 133 C-13.66836482 134.4647923 -13.66836482 134.4647923 -15 136 C-19.4358589 137.97149284 -22.30611276 138.1224513 -27 137 C-28.0828125 136.814375 -28.0828125 136.814375 -29.1875 136.625 C-31 136 -31 136 -32.3203125 134.59765625 C-34.30242314 132.71234636 -36.17276342 131.86941827 -38.6875 130.8125 C-39.49574219 130.46832031 -40.30398438 130.12414062 -41.13671875 129.76953125 C-41.75160156 129.51558594 -42.36648438 129.26164063 -43 129 C-43 128.34 -43 127.68 -43 127 C-43.99 126.67 -44.98 126.34 -46 126 C-46.495 115.605 -46.495 115.605 -47 105 C-47.66 104.67 -48.32 104.34 -49 104 C-47.02 103.01 -47.02 103.01 -45 102 C-44.67 108.93 -44.34 115.86 -44 123 C-43.67 84.06 -43.34 45.12 -43 5 C-42.34 5.33 -41.68 5.66 -41 6 C-41.01382689 6.59469054 -41.02765379 7.18938108 -41.04189968 7.80209255 C-41.37376285 22.29996986 -41.62166545 36.79762253 -41.77718258 51.29840755 C-41.85440123 58.31141326 -41.95957137 65.32187807 -42.1315918 72.33325195 C-42.29759646 79.10268127 -42.38430846 85.8694732 -42.42315865 92.64081001 C-42.45083394 95.22113105 -42.50488526 97.80131072 -42.58595085 100.38050652 C-43.62441425 113.30011589 -43.62441425 113.30011589 -39.4561348 124.99391556 C-35.43171613 128.47756549 -31.02855657 130.38377752 -26 132 C-26.00092179 131.40916437 -26.00184359 130.81832874 -26.00279331 130.209589 C-26.02485803 115.84679992 -26.0414162 101.48401234 -26.05181217 87.1212101 C-26.05697295 80.17552711 -26.0640115 73.22985542 -26.07543945 66.28417969 C-26.08645439 59.58634663 -26.09227771 52.88852775 -26.09487724 46.19068527 C-26.09673075 43.63011871 -26.10034994 41.06955282 -26.10573006 38.50899124 C-26.11294589 34.93387693 -26.11399071 31.35881177 -26.11352539 27.78369141 C-26.11712067 26.71554703 -26.12071594 25.64740265 -26.12442017 24.54689026 C-26.1230455 23.57651321 -26.12167084 22.60613617 -26.12025452 21.60635376 C-26.12117631 20.7601478 -26.1220981 19.91394184 -26.12304783 19.04209328 C-26 17 -26 17 -25 15 C-25.7425 14.731875 -26.485 14.46375 -27.25 14.1875 C-29.86636554 13.05770579 -31.80187111 11.79106798 -34 10 C-33.67 9.01 -33.34 8.02 -33 7 C-30.77362902 7.4770795 -29.04331527 7.9748492 -27.0625 9.125 C-24.19307636 10.34233124 -23.02111535 9.8718655 -20 9 C-17.05898529 7.59779842 -14.22053664 6.02293978 -11.375 4.4375 C-9.86515268 3.59713734 -8.35224529 2.76224266 -6.8359375 1.93359375 C-6.17126465 1.56290771 -5.5065918 1.19222168 -4.82177734 0.81030273 C-3 0 -3 0 0 0 Z " fill="#070707" transform="translate(323,186)"/>
<path d="M0 0 C1.4540625 0.0309375 1.4540625 0.0309375 2.9375 0.0625 C4.19040594 2.56831188 4.06612953 4.26808366 4.07121277 7.07299805 C4.07547775 8.13304047 4.07974274 9.19308289 4.08413696 10.2852478 C4.08368378 11.45310822 4.08323059 12.62096863 4.08276367 13.82421875 C4.08612228 15.05024811 4.0894809 16.27627747 4.09294128 17.53945923 C4.10082871 20.90715516 4.10411971 24.27478945 4.10475707 27.64249039 C4.10570541 30.45082589 4.10938275 33.25915545 4.11292917 36.06748867 C4.12107644 42.69050331 4.12351311 49.31350436 4.12280273 55.93652344 C4.1222015 62.77686262 4.13276172 69.61712304 4.1485464 76.45744228 C4.16160373 82.32413576 4.16698741 88.19080343 4.16634732 94.05751133 C4.16609185 97.56419707 4.16897019 101.07081282 4.17952538 104.57748413 C4.19096665 108.48528144 4.18647066 112.39296988 4.18041992 116.30078125 C4.18603943 117.46864166 4.19165894 118.63650208 4.19744873 119.8397522 C4.19325424 120.89979462 4.18905975 121.95983704 4.18473816 123.05200195 C4.18528293 123.97672806 4.18582769 124.90145416 4.18638897 125.85420227 C3.9375 128.0625 3.9375 128.0625 1.9375 130.0625 C0.10320589 131.03831013 -1.75485932 131.96978504 -3.625 132.875 C-8.29153743 135.15218052 -12.78847924 137.57720244 -17.22265625 140.27734375 C-19.0625 141.0625 -19.0625 141.0625 -22.0625 140.0625 C-22.75 138 -22.75 138 -23.0625 136.0625 C-22.0725 136.0625 -21.0825 136.0625 -20.0625 136.0625 C-20.0625 96.7925 -20.0625 57.5225 -20.0625 17.0625 C-21.7125 16.7325 -23.3625 16.4025 -25.0625 16.0625 C-27.30078125 14.87109375 -27.30078125 14.87109375 -29.375 13.5 C-30.07238281 13.04496094 -30.76976562 12.58992187 -31.48828125 12.12109375 C-32.00777344 11.77175781 -32.52726562 11.42242187 -33.0625 11.0625 C-32.7325 9.7425 -32.4025 8.4225 -32.0625 7.0625 C-28.44895016 7.64066797 -25.9225592 9.31443232 -22.94140625 11.3203125 C-20.26571185 12.3772396 -18.79567957 11.90191865 -16.0625 11.0625 C-14.13608376 10.10062412 -12.23994663 9.07622432 -10.375 8 C-5.26720588 5.0625 -5.26720588 5.0625 -3.0625 5.0625 C-3.248125 4.423125 -3.43375 3.78375 -3.625 3.125 C-3.769375 2.444375 -3.91375 1.76375 -4.0625 1.0625 C-3.0625 0.0625 -3.0625 0.0625 0 0 Z " fill="#080808" transform="translate(404.0625,134.9375)"/>
<path d="M0 0 C2.29662416 1.17934754 3.51059961 2.38559961 5.3125 4.1875 C7.91165538 5.37777984 7.91165538 5.37777984 10.3125 6.1875 C10.3125 6.8475 10.3125 7.5075 10.3125 8.1875 C11.3953125 8.3421875 11.3953125 8.3421875 12.5 8.5 C15.58996686 9.25532523 17.70808686 10.37887976 20.3125 12.1875 C20.6425 12.8475 20.9725 13.5075 21.3125 14.1875 C22.96927921 14.87837255 24.6381434 15.54038935 26.3125 16.1875 C28.18537432 17.22875968 30.03854074 18.30593827 31.875 19.41015625 C32.91914063 20.03083984 33.96328125 20.65152344 35.0390625 21.29101562 C37.2230773 22.59803642 39.40537003 23.90793905 41.5859375 25.22070312 C42.63007813 25.84009766 43.67421875 26.45949219 44.75 27.09765625 C45.69746094 27.66621338 46.64492188 28.23477051 47.62109375 28.82055664 C50.25078521 30.15615556 52.4439779 30.63393633 55.3125 31.1875 C56.42683233 32.34200749 57.53724176 33.5006352 58.62451172 34.68066406 C62.6183662 38.24590414 67.69414089 40.52531476 72.375 43.0625 C74.53315468 44.24629792 76.69070844 45.43119203 78.84765625 46.6171875 C79.90742676 47.19823242 80.96719727 47.77927734 82.05908203 48.37792969 C87.19158005 51.23265544 92.25468938 54.20254393 97.3125 57.1875 C96.3225 58.1775 95.3325 59.1675 94.3125 60.1875 C88.77085322 58.64223311 84.21537054 55.97909203 79.3125 53.0625 C77.60698177 52.06083866 75.90125122 51.05953877 74.1953125 50.05859375 C73.36161133 49.5672998 72.52791016 49.07600586 71.66894531 48.56982422 C68.52471104 46.72537183 65.35815799 44.92366793 62.1875 43.125 C57.32788554 40.35524268 52.50136522 37.53585848 47.6875 34.6875 C42.32719917 31.51683149 36.94118971 28.39379544 31.53125 25.30859375 C30.9338652 24.96783813 30.33648041 24.62708252 29.72099304 24.27600098 C26.65319729 22.52725389 23.58331694 20.78227106 20.51098633 19.04150391 C15.40442489 16.14227257 10.31482184 13.23666265 5.35546875 10.08984375 C4.66404785 9.65357666 3.97262695 9.21730957 3.26025391 8.76782227 C1.52891607 7.66090503 -0.18751218 6.53075775 -1.90234375 5.3984375 C-4.57180831 3.91354615 -4.57180831 3.91354615 -7.10546875 4.72265625 C-7.95753906 5.20605469 -8.80960937 5.68945312 -9.6875 6.1875 C-10.82960938 6.79722656 -11.97171875 7.40695313 -13.1484375 8.03515625 C-14.45525335 8.76966358 -15.75982822 9.50816786 -17.0625 10.25 C-17.77092041 10.65065674 -18.47934082 11.05131348 -19.20922852 11.46411133 C-23.72500456 14.0314127 -28.18709568 16.67592735 -32.625 19.375 C-39.2411638 23.39680113 -45.98370165 27.17485064 -52.75 30.9375 C-61.86008946 36.00406283 -70.87398834 41.20397412 -79.82324219 46.54907227 C-86.56982804 50.56610917 -93.39897037 54.40962666 -100.32006836 58.11816406 C-104.14406791 59.97240288 -104.14406791 59.97240288 -106.6875 63.1875 C-105.924375 63.39375 -105.16125 63.6 -104.375 63.8125 C-99.18851406 65.74644391 -94.49716916 68.4660146 -89.6875 71.1875 C-92.77559695 72.95212683 -93.92062136 73.1875 -97.6875 73.1875 C-103.6275 69.7225 -103.6275 69.7225 -109.6875 66.1875 C-109.3575 104.7975 -109.0275 143.4075 -108.6875 183.1875 C-103.4075 186.1575 -98.1275 189.1275 -92.6875 192.1875 C-92.6875 153.5775 -92.6875 114.9675 -92.6875 75.1875 C-92.3575 75.1875 -92.0275 75.1875 -91.6875 75.1875 C-91.3575 114.1275 -91.0275 153.0675 -90.6875 193.1875 C-89.3675 193.5175 -88.0475 193.8475 -86.6875 194.1875 C-86.3575 195.1775 -86.0275 196.1675 -85.6875 197.1875 C-88.140625 198.4921875 -88.140625 198.4921875 -91.6875 199.1875 C-94.87227285 197.99131988 -97.60273221 196.17479171 -100.4375 194.3125 C-101.95105282 193.35349258 -103.4665847 192.39759921 -104.984375 191.4453125 C-105.64791992 191.0136377 -106.31146484 190.58196289 -106.99511719 190.13720703 C-108.65474994 189.02437433 -108.65474994 189.02437433 -110.6875 189.1875 C-110.6875 188.5275 -110.6875 187.8675 -110.6875 187.1875 C-111.6775 186.8575 -112.6675 186.5275 -113.6875 186.1875 C-113.99156036 169.8977159 -114.22060258 153.60885571 -114.36105824 137.31691742 C-114.42801722 129.75165299 -114.51924643 122.18815419 -114.66821289 114.62402344 C-114.79803585 108.02879028 -114.88171129 101.43483568 -114.91065043 94.83836031 C-114.92756337 91.34663827 -114.96710653 87.85857262 -115.06199074 84.36802673 C-115.61693469 63.14705953 -115.61693469 63.14705953 -112.4300499 58.25869751 C-109.02400869 54.95555823 -105.19392066 53.58860415 -100.6875 52.1875 C-99.00075094 51.30833382 -97.32915831 50.39823594 -95.6875 49.4375 C-94.79417969 48.95796875 -93.90085938 48.4784375 -92.98046875 47.984375 C-80.51427297 41.18194314 -68.26789404 33.96392186 -56 26.8125 C-55.02135986 26.24208984 -54.04271973 25.67167969 -53.03442383 25.08398438 C-47.54008085 21.87437587 -42.08284563 18.61693126 -36.67260742 15.26708984 C-34.6875 14.1875 -34.6875 14.1875 -32.6875 14.1875 C-32.3575 13.5275 -32.0275 12.8675 -31.6875 12.1875 C-29.91015625 11.1171875 -29.91015625 11.1171875 -27.75 10.0625 C-27.03972656 9.70929688 -26.32945312 9.35609375 -25.59765625 8.9921875 C-23.6875 8.1875 -23.6875 8.1875 -21.6875 8.1875 C-21.6875 7.5275 -21.6875 6.8675 -21.6875 6.1875 C-20.883125 6.06375 -20.07875 5.94 -19.25 5.8125 C-18.404375 5.60625 -17.55875 5.4 -16.6875 5.1875 C-16.3575 4.5275 -16.0275 3.8675 -15.6875 3.1875 C-10.20669035 -0.4663731 -6.57065931 -1.9864784 0 0 Z " fill="#464646" transform="translate(305.6875,76.8125)"/>
<path d="M0 0 C2.29662416 1.17934754 3.51059961 2.38559961 5.3125 4.1875 C7.91165538 5.37777984 7.91165538 5.37777984 10.3125 6.1875 C10.3125 6.8475 10.3125 7.5075 10.3125 8.1875 C11.034375 8.290625 11.75625 8.39375 12.5 8.5 C15.58996686 9.25532523 17.70808686 10.37887976 20.3125 12.1875 C20.8075 13.1775 20.8075 13.1775 21.3125 14.1875 C22.96927921 14.87837255 24.6381434 15.54038935 26.3125 16.1875 C28.18537432 17.22875968 30.03854074 18.30593827 31.875 19.41015625 C32.91914063 20.03083984 33.96328125 20.65152344 35.0390625 21.29101562 C37.2230773 22.59803642 39.40537003 23.90793905 41.5859375 25.22070312 C42.63007813 25.84009766 43.67421875 26.45949219 44.75 27.09765625 C46.17119141 27.95049194 46.17119141 27.95049194 47.62109375 28.82055664 C50.25078521 30.15615556 52.4439779 30.63393633 55.3125 31.1875 C56.42683233 32.34200749 57.53724176 33.5006352 58.62451172 34.68066406 C62.6183662 38.24590414 67.69414089 40.52531476 72.375 43.0625 C74.53315468 44.24629792 76.69070844 45.43119203 78.84765625 46.6171875 C79.90742676 47.19823242 80.96719727 47.77927734 82.05908203 48.37792969 C87.19158005 51.23265544 92.25468938 54.20254393 97.3125 57.1875 C96.3225 58.1775 95.3325 59.1675 94.3125 60.1875 C88.77085322 58.64223311 84.21537054 55.97909203 79.3125 53.0625 C77.60698177 52.06083866 75.90125122 51.05953877 74.1953125 50.05859375 C73.36161133 49.5672998 72.52791016 49.07600586 71.66894531 48.56982422 C68.52471104 46.72537183 65.35815799 44.92366793 62.1875 43.125 C57.32788554 40.35524268 52.50136522 37.53585848 47.6875 34.6875 C42.32719917 31.51683149 36.94118971 28.39379544 31.53125 25.30859375 C30.63517281 24.79746033 30.63517281 24.79746033 29.72099304 24.27600098 C26.65319729 22.52725389 23.58331694 20.78227106 20.51098633 19.04150391 C15.40442489 16.14227257 10.31482184 13.23666265 5.35546875 10.08984375 C4.66404785 9.65357666 3.97262695 9.21730957 3.26025391 8.76782227 C1.52891607 7.66090503 -0.18751218 6.53075775 -1.90234375 5.3984375 C-4.56903072 3.91552634 -4.56903072 3.91552634 -7.08984375 4.71484375 C-7.94707031 5.20082031 -8.80429687 5.68679687 -9.6875 6.1875 C-10.25235107 6.4875293 -10.81720215 6.78755859 -11.39916992 7.09667969 C-13.3888447 8.15873061 -15.35122223 9.26143266 -17.3125 10.375 C-18.01455566 10.77066162 -18.71661133 11.16632324 -19.43994141 11.57397461 C-24.63676641 14.52722855 -29.67299354 17.65819887 -34.6484375 20.97265625 C-36.6875 22.1875 -36.6875 22.1875 -38.6875 22.1875 C-38.6875 21.1975 -38.6875 20.2075 -38.6875 19.1875 C-39.3475 18.8575 -40.0075 18.5275 -40.6875 18.1875 C-34.9375 14.1875 -34.9375 14.1875 -32.6875 14.1875 C-32.3575 13.5275 -32.0275 12.8675 -31.6875 12.1875 C-29.91015625 11.1171875 -29.91015625 11.1171875 -27.75 10.0625 C-27.03972656 9.70929688 -26.32945312 9.35609375 -25.59765625 8.9921875 C-23.6875 8.1875 -23.6875 8.1875 -21.6875 8.1875 C-21.6875 7.5275 -21.6875 6.8675 -21.6875 6.1875 C-20.883125 6.06375 -20.07875 5.94 -19.25 5.8125 C-18.404375 5.60625 -17.55875 5.4 -16.6875 5.1875 C-16.3575 4.5275 -16.0275 3.8675 -15.6875 3.1875 C-10.20669035 -0.4663731 -6.57065931 -1.9864784 0 0 Z " fill="#464646" transform="translate(305.6875,76.8125)"/>
<path d="M0 0 C0.33 0 0.66 0 1 0 C1.33 40.59 1.66 81.18 2 123 C2.33 84.06 2.66 45.12 3 5 C4.32 5 5.64 5 7 5 C7 4.34 7 3.68 7 3 C13.16356805 4.6658292 18.48259656 7.87805286 24 11 C20.91190305 12.76462683 19.76687864 13 16 13 C12.04 10.69 8.08 8.38 4 6 C4.33 44.61 4.66 83.22 5 123 C10.28 125.97 15.56 128.94 21 132 C21 93.39 21 54.78 21 15 C21.33 15 21.66 15 22 15 C22.33 53.94 22.66 92.88 23 133 C24.32 133.33 25.64 133.66 27 134 C27.33 134.99 27.66 135.98 28 137 C25.546875 138.3046875 25.546875 138.3046875 22 139 C18.81522715 137.80381988 16.08476779 135.98729171 13.25 134.125 C11.73644718 133.16599258 10.2209153 132.21009921 8.703125 131.2578125 C8.03958008 130.8261377 7.37603516 130.39446289 6.69238281 129.94970703 C5.03275006 128.83687433 5.03275006 128.83687433 3 129 C3 128.34 3 127.68 3 127 C2.01 126.67 1.02 126.34 0 126 C0 84.42 0 42.84 0 0 Z " fill="#646464" transform="translate(192,137)"/>
<path d="M0 0 C4.27926035 1.27560918 7.69612191 2.88916634 11.4375 5.3125 C17.89566682 9.37791977 24.48300169 13.18045693 31.125 16.9375 C32.1452124 17.51733643 33.1654248 18.09717285 34.21655273 18.69458008 C35.17891846 19.23751709 36.14128418 19.7804541 37.1328125 20.33984375 C37.99793457 20.82831787 38.86305664 21.31679199 39.75439453 21.82006836 C42.06546938 23.11145277 42.06546938 23.11145277 45 24 C45 24.66 45 25.32 45 26 C45.70511719 26.26554687 46.41023438 26.53109375 47.13671875 26.8046875 C50.15567786 28.06498967 52.95185076 29.53957994 55.8125 31.125 C57.27623047 31.93324219 57.27623047 31.93324219 58.76953125 32.7578125 C59.50558594 33.16773438 60.24164063 33.57765625 61 34 C60.34 35.32 59.68 36.64 59 38 C55.43095812 36.64694351 52.1457167 35.06310902 48.81640625 33.19921875 C47.31702515 32.36100586 47.31702515 32.36100586 45.78735352 31.50585938 C44.72315186 30.90580078 43.6589502 30.30574219 42.5625 29.6875 C41.460271 29.06810547 40.35804199 28.44871094 39.22241211 27.81054688 C25.00165773 19.78738195 10.99561009 11.40742814 -3 3 C-2.01 2.01 -1.02 1.02 0 0 Z " fill="#3A3A3A" transform="translate(312,107)"/>
<path d="M0 0 C2.29662416 1.17934754 3.51059961 2.38559961 5.3125 4.1875 C7.91165538 5.37777984 7.91165538 5.37777984 10.3125 6.1875 C10.3125 6.8475 10.3125 7.5075 10.3125 8.1875 C11.034375 8.290625 11.75625 8.39375 12.5 8.5 C15.58996686 9.25532523 17.70808686 10.37887976 20.3125 12.1875 C20.8075 13.1775 20.8075 13.1775 21.3125 14.1875 C19.3125 16.1875 19.3125 16.1875 17.3125 17.1875 C14.58984375 15.7109375 14.58984375 15.7109375 11.25 13.5625 C10.07220532 12.82197627 8.89381714 12.08239568 7.71484375 11.34375 C5.68205642 10.05833592 3.6542493 8.76591294 1.62890625 7.46875 C0.86449219 7.0046875 0.10007812 6.540625 -0.6875 6.0625 C-1.3475 5.64742188 -2.0075 5.23234375 -2.6875 4.8046875 C-6.11298059 3.7476056 -8.37642043 5.49882959 -11.40722656 7.09082031 C-13.39076488 8.16030465 -15.3528578 9.26236129 -17.3125 10.375 C-18.01455566 10.77066162 -18.71661133 11.16632324 -19.43994141 11.57397461 C-24.63676641 14.52722855 -29.67299354 17.65819887 -34.6484375 20.97265625 C-36.6875 22.1875 -36.6875 22.1875 -38.6875 22.1875 C-38.6875 21.1975 -38.6875 20.2075 -38.6875 19.1875 C-39.3475 18.8575 -40.0075 18.5275 -40.6875 18.1875 C-34.9375 14.1875 -34.9375 14.1875 -32.6875 14.1875 C-32.3575 13.5275 -32.0275 12.8675 -31.6875 12.1875 C-29.91015625 11.1171875 -29.91015625 11.1171875 -27.75 10.0625 C-27.03972656 9.70929688 -26.32945312 9.35609375 -25.59765625 8.9921875 C-23.6875 8.1875 -23.6875 8.1875 -21.6875 8.1875 C-21.6875 7.5275 -21.6875 6.8675 -21.6875 6.1875 C-20.883125 6.06375 -20.07875 5.94 -19.25 5.8125 C-18.404375 5.60625 -17.55875 5.4 -16.6875 5.1875 C-16.3575 4.5275 -16.0275 3.8675 -15.6875 3.1875 C-10.20669035 -0.4663731 -6.57065931 -1.9864784 0 0 Z " fill="#4F4F4F" transform="translate(305.6875,76.8125)"/>
<path d="M0 0 C3 3.75 3 3.75 3 6 C1.68 6 0.36 6 -1 6 C-1 44.94 -1 83.88 -1 124 C-1.99 124.495 -1.99 124.495 -3 125 C-3 84.08 -3 43.16 -3 1 C-2.01 0.67 -1.02 0.34 0 0 Z " fill="#010101" transform="translate(196,136)"/>
<path d="M0 0 C0.66 0.33 1.32 0.66 2 1 C1.98893848 1.59653413 1.97787697 2.19306826 1.96648026 2.80767918 C1.70119501 17.33856026 1.50276371 31.86929817 1.37825394 46.4020319 C1.31643547 53.43028409 1.23220406 60.45691782 1.09472656 67.48413086 C0.96210397 74.26643099 0.89258533 81.04704936 0.86147308 87.8305645 C0.83930379 90.41796776 0.79600874 93.00527917 0.73123932 95.59196663 C-0.29223229 108.1735565 -0.29223229 108.1735565 3.23509216 119.78806686 C6.38291905 122.66948836 9.90043377 124.03621506 14 125 C13.01 125.495 13.01 125.495 12 126 C12.66 127.32 13.32 128.64 14 130 C13.34 130.33 12.68 130.66 12 131 C11.60167969 130.55011719 11.20335937 130.10023438 10.79296875 129.63671875 C8.74806176 127.77001716 6.85837469 126.88250531 4.3125 125.8125 C3.50425781 125.46832031 2.69601562 125.12414062 1.86328125 124.76953125 C1.24839844 124.51558594 0.63351562 124.26164062 0 124 C0 123.34 0 122.68 0 122 C-0.99 121.67 -1.98 121.34 -3 121 C-3.495 110.605 -3.495 110.605 -4 100 C-4.66 99.67 -5.32 99.34 -6 99 C-4.02 98.01 -4.02 98.01 -2 97 C-1.67 103.93 -1.34 110.86 -1 118 C-0.67 79.06 -0.34 40.12 0 0 Z " fill="#737373" transform="translate(280,191)"/>
<path d="M0 0 C5.13108726 1.46830491 9.29094576 3.75670312 13.8125 6.5 C15.30718767 7.39340317 16.80198275 8.28662667 18.296875 9.1796875 C19.06451172 9.64084961 19.83214844 10.10201172 20.62304688 10.57714844 C24.5884824 12.95087053 28.57646482 15.28609729 32.5625 17.625 C34.00140619 18.47117716 35.44021807 19.31751472 36.87890625 20.1640625 C37.90886719 20.76992187 38.93882812 21.37578125 40 22 C39.01 22.33 38.02 22.66 37 23 C37 23.66 37 24.32 37 25 C27.21726542 21.27251438 18.2804479 15.46349558 9.3125 10.125 C8.31283203 9.53203125 7.31316406 8.9390625 6.28320312 8.328125 C3.85444019 6.88713646 1.4267279 5.44441208 -1 4 C-0.67 2.68 -0.34 1.36 0 0 Z " fill="#444444" transform="translate(302,126)"/>
<path d="M0 0 C6.16356805 1.6658292 11.48259656 4.87805286 17 8 C13.91190305 9.76462683 12.76687864 10 9 10 C5.04 7.69 1.08 5.38 -3 3 C-2.67 41.94 -2.34 80.88 -2 121 C-2.66 121 -3.32 121 -4 121 C-4 81.73 -4 42.46 -4 2 C-2.68 2 -1.36 2 0 2 C0 1.34 0 0.68 0 0 Z " fill="#757575" transform="translate(199,140)"/>
<path d="M0 0 C3.72433382 1.2125738 7.37802806 2.50859979 11 4 C11 4.66 11 5.32 11 6 C11.70511719 6.26554688 12.41023438 6.53109375 13.13671875 6.8046875 C16.15567786 8.06498967 18.95185076 9.53957994 21.8125 11.125 C22.78832031 11.66382813 23.76414062 12.20265625 24.76953125 12.7578125 C25.50558594 13.16773438 26.24164063 13.57765625 27 14 C26.34 15.32 25.68 16.64 25 18 C21.29102741 16.60582632 17.92161688 14.92181521 14.48046875 12.9609375 C13.45888672 12.38085938 12.43730469 11.80078125 11.38476562 11.203125 C10.32966797 10.59984375 9.27457031 9.9965625 8.1875 9.375 C6.57584961 8.45847656 6.57584961 8.45847656 4.93164062 7.5234375 C2.28613924 6.01844115 -0.3576625 4.51054209 -3 3 C-2.01 2.01 -1.02 1.02 0 0 Z " fill="#494949" transform="translate(346,127)"/>
<path d="M0 0 C8.22492784 3.98121507 16.16219859 8.30287788 24 13 C22.234375 14.55078125 22.234375 14.55078125 20 16 C16.25 15.1875 16.25 15.1875 13 14 C13 13.34 13 12.68 13 12 C12.360625 11.773125 11.72125 11.54625 11.0625 11.3125 C6.855805 9.50963071 2.9810729 7.25792194 -1 5 C-1 11.27 -1 17.54 -1 24 C-1.66 24 -2.32 24 -3 24 C-3 17.07 -3 10.14 -3 3 C-2.01 2.67 -1.02 2.34 0 2 C0 1.34 0 0.68 0 0 Z " fill="#414141" transform="translate(304,151)"/>
<path d="M0 0 C0.66 0 1.32 0 2 0 C2.33 6.27 2.66 12.54 3 19 C3.66 18.34 4.32 17.68 5 17 C5.2475 17.639375 5.495 18.27875 5.75 18.9375 C6.78826429 21.17549168 6.78826429 21.17549168 8.9375 21.5625 C9.9584375 21.7790625 9.9584375 21.7790625 11 22 C11.45246094 22.46148437 11.90492188 22.92296875 12.37109375 23.3984375 C14.17910665 25.17610006 15.82674567 26.01514055 18.125 27.0625 C21.88967972 28.77935943 21.88967972 28.77935943 23 31 C22.34 31.66 21.68 32.32 21 33 C17.55860951 33 15.92439685 32.16303398 12.875 30.625 C11.98554688 30.18414062 11.09609375 29.74328125 10.1796875 29.2890625 C8 28 8 28 7 26 C6.195625 25.7525 5.39125 25.505 4.5625 25.25 C2 24 2 24 0.84765625 21.40234375 C-0.10584151 17.57517073 -0.1955623 14.25222856 -0.125 10.3125 C-0.10695312 9.00925781 -0.08890625 7.70601563 -0.0703125 6.36328125 C-0.04710937 5.25339844 -0.02390625 4.14351563 0 3 C0 2.01 0 1.02 0 0 Z " fill="#777777" transform="translate(233,264)"/>
<path d="M0 0 C6.16136581 1.3109289 11.14403099 3.94785353 16 8 C16 8.66 16 9.32 16 10 C18.64 10 21.28 10 24 10 C24.66 11.32 25.32 12.64 26 14 C23.546875 15.3046875 23.546875 15.3046875 20 16 C16.81522715 14.80381988 14.08476779 12.98729171 11.25 11.125 C9.73644718 10.16599258 8.2209153 9.21009921 6.703125 8.2578125 C6.03958008 7.8261377 5.37603516 7.39446289 4.69238281 6.94970703 C3.03275006 5.83687433 3.03275006 5.83687433 1 6 C1 5.34 1 4.68 1 4 C0.34 4 -0.32 4 -1 4 C-0.67 2.68 -0.34 1.36 0 0 Z " fill="#404040" transform="translate(194,260)"/>
<path d="M0 0 C0 1.32 0 2.64 0 4 C-2.8859723 5.68419305 -5.7852118 7.34410697 -8.6875 9 C-9.91243164 9.71542969 -9.91243164 9.71542969 -11.16210938 10.4453125 C-11.95810547 10.89648438 -12.75410156 11.34765625 -13.57421875 11.8125 C-14.30213623 12.23144531 -15.03005371 12.65039062 -15.7800293 13.08203125 C-18.33372919 14.13799865 -20.26261386 14.16832505 -23 14 C-23 13.01 -23 12.02 -23 11 C-21.31933594 9.6496582 -21.31933594 9.6496582 -18.984375 8.30078125 C-18.14519531 7.81416016 -17.30601562 7.32753906 -16.44140625 6.82617188 C-15.55324219 6.32666016 -14.66507813 5.82714844 -13.75 5.3125 C-12.87730469 4.80138672 -12.00460938 4.29027344 -11.10546875 3.76367188 C-4.52281167 0 -4.52281167 0 0 0 Z " fill="#404040" transform="translate(267,96)"/>
<path d="M0 0 C0.74765625 0.40992188 1.4953125 0.81984375 2.265625 1.2421875 C3.74289062 2.05042969 3.74289062 2.05042969 5.25 2.875 C6.71179688 3.67550781 6.71179688 3.67550781 8.203125 4.4921875 C10.45130408 5.70419466 12.7072805 6.87547567 15 8 C15 8.66 15 9.32 15 10 C15.66 10.33 16.32 10.66 17 11 C17 11.99 17 12.98 17 14 C10.67411157 11.64119414 4.91640723 8.22713122 -1 5 C-1 12.26 -1 19.52 -1 27 C-1.33 27 -1.66 27 -2 27 C-2.05797565 23.06256167 -2.09358789 19.12523281 -2.125 15.1875 C-2.14175781 14.06794922 -2.15851563 12.94839844 -2.17578125 11.79492188 C-2.18222656 10.72177734 -2.18867188 9.64863281 -2.1953125 8.54296875 C-2.20578613 7.55321045 -2.21625977 6.56345215 -2.22705078 5.54370117 C-2 3 -2 3 0 0 Z " fill="#3B3B3B" transform="translate(324,285)"/>
<path d="M0 0 C0.33 0.99 0.66 1.98 1 3 C-0.65 3.33 -2.3 3.66 -4 4 C-4 5.32 -4 6.64 -4 8 C-6.38512075 11.25710038 -10.1611187 13.11823283 -13.5625 15.1875 C-14.15224609 15.55552734 -14.74199219 15.92355469 -15.34960938 16.30273438 C-19.74830415 19 -19.74830415 19 -22 19 C-22 18.01 -22 17.02 -22 16 C-22.66 15.67 -23.32 15.34 -24 15 C-18.25 11 -18.25 11 -16 11 C-15.67 10.34 -15.34 9.68 -15 9 C-13.22265625 7.9296875 -13.22265625 7.9296875 -11.0625 6.875 C-10.35222656 6.52179688 -9.64195312 6.16859375 -8.91015625 5.8046875 C-7 5 -7 5 -5 5 C-5 4.34 -5 3.68 -5 3 C-3.35 2.67 -1.7 2.34 0 2 C0 1.34 0 0.68 0 0 Z " fill="#4A4A4A" transform="translate(289,80)"/>
<path d="M0 0 C0.66 0 1.32 0 2 0 C2.33 6.93 2.66 13.86 3 21 C4.98 21.66 6.96 22.32 9 23 C10.64772298 23.83141985 12.2755591 24.70410978 13.875 25.625 C14.65617187 26.07101562 15.43734375 26.51703125 16.2421875 26.9765625 C17.11230469 27.48316406 17.11230469 27.48316406 18 28 C17.34 28.33 16.68 28.66 16 29 C16.66 30.32 17.32 31.64 18 33 C17.01 33.495 17.01 33.495 16 34 C15.60167969 33.55011719 15.20335937 33.10023438 14.79296875 32.63671875 C12.74806176 30.77001716 10.85837469 29.88250531 8.3125 28.8125 C7.50425781 28.46832031 6.69601562 28.12414062 5.86328125 27.76953125 C4.94095703 27.38861328 4.94095703 27.38861328 4 27 C4 26.34 4 25.68 4 25 C3.01 24.67 2.02 24.34 1 24 C0.67 17.07 0.34 10.14 0 3 C-0.66 2.67 -1.32 2.34 -2 2 C-1.34 1.34 -0.68 0.68 0 0 Z " fill="#505050" transform="translate(276,288)"/>
<path d="M0 0 C0.66 1.32 1.32 2.64 2 4 C2.66 4 3.32 4 4 4 C4 4.66 4 5.32 4 6 C2.9275 5.690625 1.855 5.38125 0.75 5.0625 C-4.92514214 4.26189959 -8.73039703 7.47643323 -13.265625 10.53125 C-16 12 -16 12 -18.359375 11.71875 C-18.90078125 11.4815625 -19.4421875 11.244375 -20 11 C-18.1875 9 -18.1875 9 -16 7 C-15.01 7 -14.02 7 -13 7 C-12.67 6.01 -12.34 5.02 -12 4 C-7.91015695 0.67105798 -5.27388024 -0.50227431 0 0 Z " fill="#3D3D3D" transform="translate(303,76)"/>
<path d="M0 0 C6.16356805 1.6658292 11.48259656 4.87805286 17 8 C13.91190305 9.76462683 12.76687864 10 9 10 C6.203125 8.46875 6.203125 8.46875 3.25 6.5 C1.77273437 5.52546875 1.77273437 5.52546875 0.265625 4.53125 C-0.48203125 4.0259375 -1.2296875 3.520625 -2 3 C-1.34 2.67 -0.68 2.34 0 2 C0 1.34 0 0.68 0 0 Z " fill="#3E3E3E" transform="translate(199,140)"/>
<path d="M0 0 C2.4609375 1.1796875 2.4609375 1.1796875 5.375 2.875 C8.57382593 4.72876705 11.34492317 6.32441708 15 7 C15 7.66 15 8.32 15 9 C14.34 9.66 13.68 10.32 13 11 C9.35766698 11 7.57543528 9.95577289 4.375 8.25 C3.39273438 7.73953125 2.41046875 7.2290625 1.3984375 6.703125 C-1 5 -1 5 -1.8359375 2.796875 C-1.89007813 2.20390625 -1.94421875 1.6109375 -2 1 C-1.34 0.67 -0.68 0.34 0 0 Z " fill="#424242" transform="translate(240,163)"/>
<path d="M0 0 C3.3 1.65 6.6 3.3 10 5 C10 5.99 10 6.98 10 8 C8.02 8.99 8.02 8.99 6 10 C5.649375 9.5875 5.29875 9.175 4.9375 8.75 C2.21655906 6.29237593 -0.78439652 4.75948115 -4 3 C-3.01 2.67 -2.02 2.34 -1 2 C-0.67 1.34 -0.34 0.68 0 0 Z " fill="#363636" transform="translate(310,179)"/>
<path d="M0 0 C4.71590568 0.41610932 8.03624022 2.59065582 12 5 C11.34 6.32 10.68 7.64 10 9 C6.40924853 7.66629231 3.15378602 6.19012918 0 4 C-0.33 3.01 -0.66 2.02 -1 1 C-0.67 0.67 -0.34 0.34 0 0 Z " fill="#4C4C4C" transform="translate(325,91)"/>
<path d="M0 0 C1.98 0.99 3.96 1.98 6 3 C5.67 4.32 5.34 5.64 5 7 C3.02 6.34 1.04 5.68 -1 5 C-1 12.26 -1 19.52 -1 27 C-1.33 27 -1.66 27 -2 27 C-2.05797565 23.06256167 -2.09358789 19.12523281 -2.125 15.1875 C-2.14175781 14.06794922 -2.15851563 12.94839844 -2.17578125 11.79492188 C-2.18222656 10.72177734 -2.18867188 9.64863281 -2.1953125 8.54296875 C-2.20578613 7.55321045 -2.21625977 6.56345215 -2.22705078 5.54370117 C-2 3 -2 3 0 0 Z " fill="#444444" transform="translate(324,285)"/>
<path d="M0 0 C0.99 0 1.98 0 3 0 C3 0.66 3 1.32 3 2 C5.64 2 8.28 2 11 2 C11.66 3.32 12.32 4.64 13 6 C10.4375 7.25 10.4375 7.25 7 8 C4.34989114 6.97381014 2.37522704 5.61515439 0 4 C0 2.68 0 1.36 0 0 Z " fill="#323232" transform="translate(207,268)"/>
<path d="M0 0 C0.66 0.33 1.32 0.66 2 1 C2 2.32 2 3.64 2 5 C0.3203125 6.51953125 0.3203125 6.51953125 -1.875 7.8125 C-2.59429687 8.25207031 -3.31359375 8.69164063 -4.0546875 9.14453125 C-4.69664062 9.42683594 -5.33859375 9.70914063 -6 10 C-8 9 -8 9 -10 6 C-8.3811004 4.96951963 -6.75467511 3.95085322 -5.125 2.9375 C-4.22007812 2.36902344 -3.31515625 1.80054687 -2.3828125 1.21484375 C-1.20332031 0.61349609 -1.20332031 0.61349609 0 0 Z " fill="#525252" transform="translate(228,116)"/>
<path d="M0 0 C0 1.32 0 2.64 0 4 C-1.45264038 4.8638129 -2.9123163 5.71580454 -4.375 6.5625 C-5.59316406 7.27599609 -5.59316406 7.27599609 -6.8359375 8.00390625 C-7.55007813 8.33261719 -8.26421875 8.66132812 -9 9 C-9.66 8.67 -10.32 8.34 -11 8 C-11 7.01 -11 6.02 -11 5 C-7.1571738 1.56168182 -5.21122115 0 0 0 Z " fill="#585858" transform="translate(267,96)"/>
<path d="M0 0 C3.4375 0.9375 3.4375 0.9375 4.875 2.8125 C5.4375 4.9375 5.4375 4.9375 5.4375 7.9375 C1.99389368 7.9375 0.68954608 7.14158468 -2.25 5.4375 C-3.05824219 4.9734375 -3.86648438 4.509375 -4.69921875 4.03125 C-5.31410156 3.6703125 -5.92898438 3.309375 -6.5625 2.9375 C-4.17718133 0.12909729 -3.95994768 -0.06947277 0 0 Z " fill="#595959" transform="translate(357.5625,107.0625)"/>
<path d="M0 0 C4.3177458 0.50797009 8.03302114 1.19682779 12 3 C12 3.66 12 4.32 12 5 C11.34 5.66 10.68 6.32 10 7 C5.75354935 7 3.61475228 5.18249194 0 3 C0 2.01 0 1.02 0 0 Z " fill="#4A4A4A" transform="translate(244,290)"/>
<path d="M0 0 C4.75481646 0.57634139 7.97048212 2.55068521 12 5 C10.4375 6.625 10.4375 6.625 8 8 C4.25 7.1875 4.25 7.1875 1 6 C0.67 4.02 0.34 2.04 0 0 Z " fill="#404040" transform="translate(316,159)"/>
<path d="M0 0 C3.77545388 1.09068668 6.47043472 1.9083091 9 5 C8.34 5 7.68 5 7 5 C7 5.99 7 6.98 7 8 C3.40608886 6.66511872 0.24509304 5.03977277 -3 3 C-2.01 2.01 -1.02 1.02 0 0 Z " fill="#4B4B4B" transform="translate(312,107)"/>
<path d="M0 0 C0.81210937 0.29003906 1.62421875 0.58007812 2.4609375 0.87890625 C3.27820313 1.16636719 4.09546875 1.45382813 4.9375 1.75 C5.56398438 1.97816406 6.19046875 2.20632812 6.8359375 2.44140625 C6.8359375 3.43140625 6.8359375 4.42140625 6.8359375 5.44140625 C6.1759375 6.10140625 5.5159375 6.76140625 4.8359375 7.44140625 C1.8659375 5.79140625 -1.1040625 4.14140625 -4.1640625 2.44140625 C-4.1640625 1.78140625 -4.1640625 1.12140625 -4.1640625 0.44140625 C-2.1640625 -0.55859375 -2.1640625 -0.55859375 0 0 Z " fill="#393939" transform="translate(313.1640625,132.55859375)"/>
<path d="M0 0 C1.1446875 0.3403125 1.1446875 0.3403125 2.3125 0.6875 C2.6425 1.6775 2.9725 2.6675 3.3125 3.6875 C3.9725 3.6875 4.6325 3.6875 5.3125 3.6875 C5.3125 4.3475 5.3125 5.0075 5.3125 5.6875 C3.32682292 5.39453125 1.34114583 5.1015625 -0.64453125 4.80859375 C-2.8900342 4.54845201 -2.8900342 4.54845201 -5.6875 5.6875 C-5.6875 2.6875 -5.6875 2.6875 -4.5 0.9375 C-2.6875 -0.3125 -2.6875 -0.3125 0 0 Z " fill="#2C2C2C" transform="translate(301.6875,76.3125)"/>
<path d="M0 0 C6.875 3.75 6.875 3.75 8 6 C6 8 6 8 4 9 C1.375 7.5625 1.375 7.5625 -1 6 C-0.67 4.02 -0.34 2.04 0 0 Z " fill="#636363" transform="translate(319,85)"/>
<path d="M0 0 C0.66 0.33 1.32 0.66 2 1 C2 2.32 2 3.64 2 5 C1.38125 5.28875 0.7625 5.5775 0.125 5.875 C-2.13325765 6.93720042 -2.13325765 6.93720042 -4 9 C-4.66 8.01 -5.32 7.02 -6 6 C-6.66 5.67 -7.32 5.34 -8 5 C-6.71475739 4.13619741 -5.42157581 3.28419631 -4.125 2.4375 C-3.04605469 1.72400391 -3.04605469 1.72400391 -1.9453125 0.99609375 C-1.30335938 0.66738281 -0.66140625 0.33867187 0 0 Z " fill="#505050" transform="translate(202,131)"/>
<path d="M0 0 C3.67268615 0.54410165 6.74104373 2.29645468 10 4 C8.3125 5.625 8.3125 5.625 6 7 C3.375 6.4375 3.375 6.4375 1 5 C-0.3125 2.875 -0.3125 2.875 -1 1 C-0.67 0.67 -0.34 0.34 0 0 Z " fill="#4A4A4A" transform="translate(362,112)"/>
<path d="M0 0 C2.475 0.99 2.475 0.99 5 2 C4.01 2.66 3.02 3.32 2 4 C1.34 2.68 0.68 1.36 0 0 Z M-3 3 C-1.68 3 -0.36 3 1 3 C1 3.66 1 4.32 1 5 C0.34 5 -0.32 5 -1 5 C-1 11.27 -1 17.54 -1 24 C-1.66 24 -2.32 24 -3 24 C-3 17.07 -3 10.14 -3 3 Z " fill="#6D6D6D" transform="translate(304,151)"/>
<path d="M0 0 C6.52307692 0.61538462 6.52307692 0.61538462 8.9375 2.5625 C9.288125 3.036875 9.63875 3.51125 10 4 C9.01 4 8.02 4 7 4 C7 4.66 7 5.32 7 6 C2.25 4.125 2.25 4.125 0 3 C0 2.01 0 1.02 0 0 Z " fill="#3F3F3F" transform="translate(332,145)"/>
<path d="M0 0 C3.82097239 0.53069061 6.06171403 1.49701566 9 4 C6.8125 5.1875 6.8125 5.1875 4 6 C1.1875 4.625 1.1875 4.625 -1 3 C-0.67 2.01 -0.34 1.02 0 0 Z " fill="#424242" transform="translate(394,131)"/>
<path d="M0 0 C7.38461538 -0.36923077 7.38461538 -0.36923077 10.5 1.5 C10.995 1.995 11.49 2.49 12 3 C9.69 3.66 7.38 4.32 5 5 C3.35 3.35 1.7 1.7 0 0 Z " fill="#4C4C4C" transform="translate(204,146)"/>
<path d="M0 0 C0 0.66 0 1.32 0 2 C0.99 2.33 1.98 2.66 3 3 C-0.96 4.98 -0.96 4.98 -5 7 C-5 6.01 -5 5.02 -5 4 C-5.66 3.67 -6.32 3.34 -7 3 C-2.25 0 -2.25 0 0 0 Z " fill="#555555" transform="translate(244,108)"/>
<path d="M0 0 C0.598125 0.20625 1.19625 0.4125 1.8125 0.625 C0.7149777 3.61824263 0.13567108 4.47110901 -2.8125 5.875 C-3.59625 6.1225 -4.38 6.37 -5.1875 6.625 C-5.5175 5.965 -5.8475 5.305 -6.1875 4.625 C-5.03076352 1.15479057 -3.91311293 -0.67081936 0 0 Z " fill="#353535" transform="translate(256.1875,101.375)"/>
<path d="M0 0 C0.33 0.99 0.66 1.98 1 3 C-0.65 3.33 -2.3 3.66 -4 4 C-4 5.32 -4 6.64 -4 8 C-5.5 9.75 -5.5 9.75 -7 11 C-7.66 10.01 -8.32 9.02 -9 8 C-9.66 7.67 -10.32 7.34 -11 7 C-9.02 6.34 -7.04 5.68 -5 5 C-5 4.34 -5 3.68 -5 3 C-3.35 2.67 -1.7 2.34 0 2 C0 1.34 0 0.68 0 0 Z " fill="#898989" transform="translate(289,80)"/>
<path d="M0 0 C0.99 0.33 1.98 0.66 3 1 C2 4 2 4 0.15234375 5.16796875 C-0.57855469 5.50441406 -1.30945313 5.84085938 -2.0625 6.1875 C-2.79597656 6.53167969 -3.52945313 6.87585938 -4.28515625 7.23046875 C-5.13400391 7.61138672 -5.13400391 7.61138672 -6 8 C-5.40054707 4.83622063 -5.05394452 4.05252493 -2.625 1.6875 C-1.75875 1.130625 -0.8925 0.57375 0 0 Z " fill="#333333" transform="translate(218,123)"/>
<path d="M0 0 C3.96 1.98 3.96 1.98 8 4 C7.01 4.495 7.01 4.495 6 5 C5.67 5.99 5.34 6.98 5 8 C3.35 7.01 1.7 6.02 0 5 C0.66 4.67 1.32 4.34 2 4 C2 3.34 2 2.68 2 2 C1.34 2 0.68 2 0 2 C0 1.34 0 0.68 0 0 Z " fill="#505050" transform="translate(201,263)"/>
<path d="M0 0 C1.98 0.99 3.96 1.98 6 3 C5.01 4.32 4.02 5.64 3 7 C1.35 6.01 -0.3 5.02 -2 4 C-1.34 3.67 -0.68 3.34 0 3 C0 2.01 0 1.02 0 0 Z " fill="#4C4C4C" transform="translate(285,189)"/>
<path d="M0 0 C1.98 0.99 3.96 1.98 6 3 C5.01 3.33 4.02 3.66 3 4 C3 4.66 3 5.32 3 6 C0.97954558 5.39816251 -1.02111039 4.72693904 -3 4 C-3.33 3.34 -3.66 2.68 -4 2 C-3.01 2 -2.02 2 -1 2 C-0.67 1.34 -0.34 0.68 0 0 Z " fill="#585858" transform="translate(310,179)"/>
<path d="M0 0 C0.99 0 1.98 0 3 0 C4.75 1.8125 4.75 1.8125 6 4 C5.67 4.99 5.34 5.98 5 7 C2.13275314 6.42655063 1.1385485 6.1385485 -1 4 C-0.01 4 0.98 4 2 4 C2 3.34 2 2.68 2 2 C1.34 2 0.68 2 0 2 C0 1.34 0 0.68 0 0 Z " fill="#646464" transform="translate(305,78)"/>
<path d="M0 0 C2.31 0.33 4.62 0.66 7 1 C6.34 2.32 5.68 3.64 5 5 C2.525 4.01 2.525 4.01 0 3 C0 2.01 0 1.02 0 0 Z " fill="#393939" transform="translate(366,140)"/>
<path d="M0 0 C0.66 0.33 1.32 0.66 2 1 C1.67 2.65 1.34 4.3 1 6 C-0.32 6 -1.64 6 -3 6 C-1.125 1.125 -1.125 1.125 0 0 Z " fill="#494949" transform="translate(206,128)"/>
<path d="M0 0 C0.66 0.33 1.32 0.66 2 1 C-0.625 5.875 -0.625 5.875 -4 7 C-3.67 5.02 -3.34 3.04 -3 1 C-2.01 0.67 -1.02 0.34 0 0 Z " fill="#393939" transform="translate(280,87)"/>
<path d="M0 0 C0.66 0.33 1.32 0.66 2 1 C1.2884375 1.61875 1.2884375 1.61875 0.5625 2.25 C-1.16266518 4.182185 -1.56584875 5.48192275 -2 8 C-2.66 8 -3.32 8 -4 8 C-4 7.01 -4 6.02 -4 5 C-4.66 4.67 -5.32 4.34 -6 4 C-4.02 2.68 -2.04 1.36 0 0 Z " fill="#747474" transform="translate(271,91)"/>
<path d="M0 0 C1.32 0.33 2.64 0.66 4 1 C4 1.66 4 2.32 4 3 C4.66 3.33 5.32 3.66 6 4 C4.35 4.33 2.7 4.66 1 5 C0.67 3.35 0.34 1.7 0 0 Z " fill="#2B2B2B" transform="translate(379,122)"/>
<path d="M0 0 C1.98 0 3.96 0 6 0 C6 0.66 6 1.32 6 2 C5.34 2.66 4.68 3.32 4 4 C3.01 4 2.02 4 1 4 C0.67 2.68 0.34 1.36 0 0 Z " fill="#484848" transform="translate(249,170)"/>
<path d="M0 0 C1.32 0 2.64 0 4 0 C4 1.32 4 2.64 4 4 C2.35 4 0.7 4 -1 4 C-0.67 2.68 -0.34 1.36 0 0 Z " fill="#2F2F2F" transform="translate(263,96)"/>
<path d="" fill="#FFFFFF" transform="translate(0,0)"/>
<path d="" fill="#FFFFFF" transform="translate(0,0)"/>
<path d="" fill="#FFFFFF" transform="translate(0,0)"/>
<path d="" fill="#FFFFFF" transform="translate(0,0)"/>
<path d="" fill="#FFFFFF" transform="translate(0,0)"/>
<path d="" fill="#FFFFFF" transform="translate(0,0)"/>
<path d="" fill="#E3E3E3" transform="translate(0,0)"/>
<path d="" fill="#FFFFFF" transform="translate(0,0)"/>
<path d="" fill="#FFFFFF" transform="translate(0,0)"/>
<path d="" fill="#FFFFFF" transform="translate(0,0)"/>
<path d="" fill="#FFFFFF" transform="translate(0,0)"/>
<path d="" fill="#FFFFFF" transform="translate(0,0)"/>
<path d="" fill="#E3E3E3" transform="translate(0,0)"/>
<path d="" fill="#FFFFFF" transform="translate(0,0)"/>
<path d="" fill="#FFFFFF" transform="translate(0,0)"/>
<path d="" fill="#FFFFFF" transform="translate(0,0)"/>
<path d="" fill="#DBDBDB" transform="translate(0,0)"/>
<path d="" fill="#FFFFFF" transform="translate(0,0)"/>
<path d="" fill="#FFFFFF" transform="translate(0,0)"/>
<path d="" fill="#FFFFFF" transform="translate(0,0)"/>
<path d="" fill="#DFDFDF" transform="translate(0,0)"/>
<path d="" fill="#FFFFFF" transform="translate(0,0)"/>
<path d="" fill="#FFFFFF" transform="translate(0,0)"/>
<path d="" fill="#FFFFFF" transform="translate(0,0)"/>
<path d="" fill="#FFFFFF" transform="translate(0,0)"/>
<path d="" fill="#FFFFFF" transform="translate(0,0)"/>
<path d="" fill="#FFFFFF" transform="translate(0,0)"/>
<path d="" fill="#DFDFDF" transform="translate(0,0)"/>
<path d="" fill="#FFFFFF" transform="translate(0,0)"/>
<path d="" fill="#FFFFFF" transform="translate(0,0)"/>
<path d="" fill="#FFFFFF" transform="translate(0,0)"/>
<path d="" fill="#FFFFFF" transform="translate(0,0)"/>
<path d="" fill="#FFFFFF" transform="translate(0,0)"/>
<path d="" fill="#FFFFFF" transform="translate(0,0)"/>
<path d="" fill="#FFFFFF" transform="translate(0,0)"/>
<path d="" fill="#FFFFFF" transform="translate(0,0)"/>
<path d="" fill="#FFFFFF" transform="translate(0,0)"/>
<path d="" fill="#FFFFFF" transform="translate(0,0)"/>
<path d="" fill="#FFFFFF" transform="translate(0,0)"/>
<path d="" fill="#FFFFFF" transform="translate(0,0)"/>
<path d="" fill="#FFFFFF" transform="translate(0,0)"/>
<path d="" fill="#FFFFFF" transform="translate(0,0)"/>
<path d="" fill="#FFFFFF" transform="translate(0,0)"/>
<path d="" fill="#FFFFFF" transform="translate(0,0)"/>
<path d="" fill="#FFFFFF" transform="translate(0,0)"/>
<path d="" fill="#FFFFFF" transform="translate(0,0)"/>
<path d="" fill="#FFFFFF" transform="translate(0,0)"/>
<path d="" fill="#FFFFFF" transform="translate(0,0)"/>
<path d="" fill="#FFFFFF" transform="translate(0,0)"/>
<path d="" fill="#FFFFFF" transform="translate(0,0)"/>
<path d="" fill="#FFFFFF" transform="translate(0,0)"/>
<path d="" fill="#FFFFFF" transform="translate(0,0)"/>
<path d="" fill="#FFFFFF" transform="translate(0,0)"/>
<path d="" fill="#FFFFFF" transform="translate(0,0)"/>
<path d="" fill="#FFFFFF" transform="translate(0,0)"/>
<path d="" fill="#FFFFFF" transform="translate(0,0)"/>
<path d="" fill="#E6E6E6" transform="translate(0,0)"/>
<path d="" fill="#FFFFFF" transform="translate(0,0)"/>
<path d="" fill="#FFFFFF" transform="translate(0,0)"/>
<path d="" fill="#FFFFFF" transform="translate(0,0)"/>
<path d="" fill="#FFFFFF" transform="translate(0,0)"/>
<path d="" fill="#E8E8E8" transform="translate(0,0)"/>
</svg>
